<svg
  width="854"
  height="150"
  xmlns="http://www.w3.org/2000/svg"
  viewBox="0 0 854 150"
  style="z-index:1;position:relative"
>
  <defs>
    <pattern id="smallGrid" width="10" height="10" patternUnits="userSpaceOnUse">
      <path d="M 10 0 L 0 0 0 10" fill="none" stroke="#8aafc8" stroke-width="0.3" opacity="0.4"/>
    </pattern>
    <pattern id="grid" width="50" height="50" patternUnits="userSpaceOnUse">
      <rect width="50" height="50" fill="url(#smallGrid)"/>
      <path d="M 50 0 L 0 0 0 50" fill="none" stroke="#8aafc8" stroke-width="0.8" opacity="0.5"/>
    </pattern>
    <pattern id="hatch45" width="5" height="5" patternUnits="userSpaceOnUse" patternTransform="rotate(45)">
      <line x1="0" y1="0" x2="0" y2="5" stroke="#a8c8e0" stroke-width="0.6"/>
    </pattern>
    <marker id="arr" markerWidth="4" markerHeight="4" refX="4" refY="2" orient="auto">
      <path d="M0,0 L4,2 L0,4 Z" fill="#a8c8e0"/>
    </marker>
    <marker id="arrL" markerWidth="4" markerHeight="4" refX="0" refY="2" orient="auto">
      <path d="M4,0 L0,2 L4,4 Z" fill="#a8c8e0"/>
    </marker>
  </defs>

  <style>
    .name {
      font-size: 36px; font-weight: 700;
      font-family: -apple-system, BlinkMacSystemFont, Segoe UI, Helvetica, Arial, sans-serif;
      animation: fadeIn 1.4s ease-in-out forwards;
    }
    .ct { font-size: 7px; font-family: 'Courier New', monospace; fill: #a8c8e0; }
    @keyframes fadeIn { from { opacity: 0; } to { opacity: 1; } }
  </style>

  <!-- Background + Grid -->
  <rect width="854" height="150" fill="#1b2d40"/>
  <rect width="854" height="150" fill="url(#grid)"/>

  <!-- ========== CAD DRAWING ========== -->

  <!-- LEFT: Shaft front view -->
  <g opacity="0.22" stroke="#a8c8e0" fill="none" stroke-width="0.8">
    <rect x="18" y="18" width="225" height="114"/>
    <rect x="18" y="28" width="38" height="94"/>
    <rect x="205" y="28" width="38" height="94"/>
    <line x1="56" y1="48" x2="205" y2="48"/>
    <line x1="56" y1="102" x2="205" y2="102"/>
    <rect x="112" y="48" width="28" height="13"/>
    <rect x="112" y="89" width="28" height="13"/>
    <!-- Center lines -->
    <line x1="-5" y1="75" x2="290" y2="75" stroke-dasharray="8,4,2,4" stroke-width="0.6"/>
    <line x1="130" y1="-5" x2="130" y2="160" stroke-dasharray="8,4,2,4" stroke-width="0.6"/>
    <line x1="37" y1="8" x2="37" y2="148" stroke-dasharray="5,3" stroke-width="0.5"/>
    <line x1="224" y1="8" x2="224" y2="148" stroke-dasharray="5,3" stroke-width="0.5"/>
    <!-- Dimension lines -->
    <line x1="18" y1="10" x2="243" y2="10" marker-start="url(#arrL)" marker-end="url(#arr)"/>
    <line x1="18" y1="7" x2="18" y2="13"/><line x1="243" y1="7" x2="243" y2="13"/>
    <line x1="56" y1="4" x2="205" y2="4" marker-start="url(#arrL)" marker-end="url(#arr)"/>
    <line x1="56" y1="1" x2="56" y2="7"/><line x1="205" y1="1" x2="205" y2="7"/>
    <line x1="252" y1="18" x2="252" y2="132" marker-start="url(#arrL)" marker-end="url(#arr)"/>
    <line x1="249" y1="18" x2="255" y2="18"/><line x1="249" y1="132" x2="255" y2="132"/>
    <!-- Fillets -->
    <path d="M56,48 Q51,48 51,53" stroke-width="0.7"/>
    <path d="M56,102 Q51,102 51,97" stroke-width="0.7"/>
    <!-- Thread lines right flange -->
    <line x1="208" y1="31" x2="240" y2="31"/><line x1="208" y1="34" x2="240" y2="34"/>
    <line x1="208" y1="37" x2="240" y2="37"/><line x1="208" y1="40" x2="240" y2="40"/>
    <line x1="208" y1="116" x2="240" y2="116"/><line x1="208" y1="113" x2="240" y2="113"/>
    <line x1="208" y1="110" x2="240" y2="110"/><line x1="208" y1="107" x2="240" y2="107"/>
    <!-- Surface finish symbol -->
    <path d="M140,15 L143,9 L146,15" stroke-width="0.7"/>
    <line x1="143" y1="9" x2="152" y2="9"/>
    <!-- Gear teeth suggestion far left -->
    <path d="M-5,52 L9,55 L11,49 L9,43 L-5,46 Z" stroke-width="0.5"/>
    <path d="M-5,62 L9,65 L11,59 L9,53 L-5,56 Z" stroke-width="0.5"/>
    <path d="M-5,72 L9,75 L11,69 L9,63 L-5,66 Z" stroke-width="0.5"/>
    <path d="M-5,82 L9,85 L11,79 L9,73 L-5,76 Z" stroke-width="0.5"/>
    <path d="M-5,92 L9,95 L11,89 L9,83 L-5,86 Z" stroke-width="0.5"/>
    <path d="M-5,102 L9,105 L11,99 L9,93 L-5,96 Z" stroke-width="0.5"/>
  </g>
  <g opacity="0.22">
    <text x="130" y="9" class="ct" text-anchor="middle">225</text>
    <text x="130" y="3" class="ct" text-anchor="middle">149</text>
    <text x="257" y="78" class="ct">114</text>
    <text x="46" y="73" class="ct" text-anchor="middle">Ø68</text>
    <text x="128" y="59" class="ct" text-anchor="middle">Ø44</text>
    <text x="220" y="73" class="ct" text-anchor="middle">Ø68</text>
    <text x="126" y="57" class="ct" text-anchor="middle">12×6</text>
    <text x="241" y="26" class="ct">M10</text>
    <text x="22" y="46" class="ct">R3</text>
    <text x="148" y="12" class="ct">Ra1.6</text>
  </g>

  <!-- MIDDLE: End / section view -->
  <g opacity="0.22" stroke="#a8c8e0" fill="none" stroke-width="0.8">
    <circle cx="430" cy="75" r="70"/>
    <circle cx="430" cy="75" r="56" stroke-dasharray="6,3" stroke-width="0.6"/>
    <circle cx="430" cy="75" r="34"/>
    <circle cx="430" cy="75" r="22"/>
    <!-- Bolt holes -->
    <circle cx="430" cy="19" r="5.5"/>
    <circle cx="478" cy="47" r="5.5"/>
    <circle cx="478" cy="103" r="5.5"/>
    <circle cx="430" cy="131" r="5.5"/>
    <circle cx="382" cy="103" r="5.5"/>
    <circle cx="382" cy="47" r="5.5"/>
    <!-- Center crosshairs -->
    <line x1="340" y1="75" x2="520" y2="75" stroke-dasharray="8,4,2,4" stroke-width="0.6"/>
    <line x1="430" y1="-5" x2="430" y2="160" stroke-dasharray="8,4,2,4" stroke-width="0.6"/>
    <!-- Radius dimension lines -->
    <line x1="430" y1="75" x2="430" y2="19" marker-end="url(#arr)" stroke-width="0.7"/>
    <line x1="430" y1="75" x2="452" y2="75" marker-end="url(#arr)" stroke-width="0.7"/>
    <line x1="430" y1="75" x2="464" y2="75" marker-end="url(#arr)" stroke-width="0.7"/>
    <!-- Hatching on hub annulus -->
    <line x1="412" y1="30" x2="419" y2="23" stroke-width="0.5"/>
    <line x1="419" y1="30" x2="426" y2="23" stroke-width="0.5"/>
    <line x1="426" y1="28" x2="433" y2="21" stroke-width="0.5"/>
    <line x1="440" y1="21" x2="447" y2="28" stroke-width="0.5"/>
    <line x1="447" y1="21" x2="454" y2="28" stroke-width="0.5"/>
    <line x1="410" y1="120" x2="418" y2="128" stroke-width="0.5"/>
    <line x1="418" y1="120" x2="426" y2="128" stroke-width="0.5"/>
    <line x1="440" y1="128" x2="448" y2="120" stroke-width="0.5"/>
    <line x1="448" y1="128" x2="456" y2="120" stroke-width="0.5"/>
  </g>
  <g opacity="0.22">
    <text x="436" y="50" class="ct">R56</text>
    <text x="452" y="79" class="ct">R22</text>
    <text x="466" y="79" class="ct">R34</text>
    <text x="435" y="77" class="ct" text-anchor="middle">6×Ø11</text>
    <text x="488" y="46" class="ct">PCD112</text>
    <text x="350" y="72" class="ct">Ø140</text>
  </g>

  <!-- RIGHT: Housing cross-section -->
  <g opacity="0.22" stroke="#a8c8e0" fill="none" stroke-width="0.8">
    <rect x="568" y="14" width="185" height="122"/>
    <rect x="598" y="34" width="125" height="82"/>
    <line x1="530" y1="75" x2="775" y2="75" stroke-dasharray="8,4,2,4" stroke-width="0.6"/>
    <line x1="660" y1="-5" x2="660" y2="160" stroke-dasharray="8,4,2,4" stroke-width="0.6"/>
    <!-- Stepped bore -->
    <line x1="598" y1="44" x2="723" y2="44"/>
    <line x1="598" y1="106" x2="723" y2="106"/>
    <line x1="618" y1="54" x2="703" y2="54"/>
    <line x1="618" y1="96" x2="703" y2="96"/>
    <!-- Bearing seat hatching -->
    <rect x="598" y="34" width="24" height="82" fill="url(#hatch45)" stroke-width="0.5"/>
    <rect x="699" y="34" width="24" height="82" fill="url(#hatch45)" stroke-width="0.5"/>
    <!-- O-ring grooves -->
    <line x1="628" y1="34" x2="628" y2="44"/><line x1="634" y1="34" x2="634" y2="44"/>
    <line x1="686" y1="34" x2="686" y2="44"/><line x1="692" y1="34" x2="692" y2="44"/>
    <!-- Dimension lines -->
    <line x1="568" y1="7" x2="753" y2="7" marker-start="url(#arrL)" marker-end="url(#arr)"/>
    <line x1="568" y1="4" x2="568" y2="10"/><line x1="753" y1="4" x2="753" y2="10"/>
    <line x1="762" y1="14" x2="762" y2="136" marker-start="url(#arrL)" marker-end="url(#arr)"/>
    <line x1="759" y1="14" x2="765" y2="14"/><line x1="759" y1="136" x2="765" y2="136"/>
    <!-- Surface finish + tolerance frame -->
    <path d="M648,13 L651,7 L654,13" stroke-width="0.7"/>
    <line x1="651" y1="7" x2="660" y2="7"/>
    <rect x="660" y="3" width="42" height="9"/>
    <line x1="680" y1="3" x2="680" y2="12"/>
  </g>
  <g opacity="0.22">
    <text x="657" y="6" class="ct" text-anchor="middle">185</text>
    <text x="767" y="78" class="ct">122</text>
    <text x="656" y="80" class="ct" text-anchor="middle">Ø82H7</text>
    <text x="656" y="50" class="ct" text-anchor="middle">Ø94</text>
    <text x="661" y="9" class="ct">⊕0.05 A</text>
    <text x="580" y="148" class="ct">ISO 2768-m</text>
    <text x="668" y="148" class="ct">Ra 1.6</text>
  </g>

  <!-- FAR RIGHT: Title block (partial) -->
  <g opacity="0.16" stroke="#a8c8e0" fill="none" stroke-width="0.5">
    <rect x="808" y="95" width="52" height="58"/>
    <line x1="808" y1="108" x2="860" y2="108"/>
    <line x1="808" y1="120" x2="860" y2="120"/>
    <line x1="808" y1="132" x2="860" y2="132"/>
    <line x1="808" y1="144" x2="860" y2="144"/>
    <line x1="832" y1="95" x2="832" y2="153"/>
  </g>
  <g opacity="0.16">
    <text x="813" y="105" class="ct">Pos.</text><text x="836" y="105" class="ct">Bez.</text>
    <text x="813" y="117" class="ct">1</text><text x="836" y="117" class="ct">Welle</text>
    <text x="813" y="129" class="ct">2</text><text x="836" y="129" class="ct">Flansch</text>
    <text x="813" y="141" class="ct">3</text><text x="836" y="141" class="ct">Gehäuse</text>
    <text x="813" y="152" class="ct">4</text><text x="836" y="152" class="ct">Lager</text>
  </g>

  <!-- Long construction lines across full width -->
  <g opacity="0.12" stroke="#a8c8e0" fill="none" stroke-width="0.5">
    <line x1="-10" y1="25" x2="870" y2="25" stroke-dasharray="3,7"/>
    <line x1="-10" y1="125" x2="870" y2="125" stroke-dasharray="3,7"/>
    <line x1="300" y1="-5" x2="300" y2="160" stroke-dasharray="4,6"/>
    <line x1="560" y1="-5" x2="560" y2="160" stroke-dasharray="4,6"/>
    <!-- Additional arc between sections -->
    <path d="M265,58 Q282,38 300,58 Q282,78 265,58 Z"/>
    <path d="M270,75 Q282,65 295,75"/>
    <path d="M530,55 Q545,38 562,55"/>
    <path d="M530,95 Q545,112 562,95"/>
  </g>

  <!-- ========== WAVES ========== -->
  <g transform="translate(427, 75) scale(1, 1) translate(-427, -75)">
    <path d="" fill="#607996" opacity="0.50">
      <animate attributeName="d" dur="20s" repeatCount="indefinite"
        keyTimes="0;0.333;0.667;1"
        keySplines="0.2 0 0.2 1;0.2 0 0.2 1;0.2 0 0.2 1"
        calcMode="spline" begin="0s"
        values="M0 0L 0 70Q 213.5 110 427 80T 854 105L 854 0 Z;M0 0L 0 95Q 213.5 110 427 90T 854 80L 854 0 Z;M0 0L 0 115Q 213.5 85 427 115T 854 80L 854 0 Z;M0 0L 0 70Q 213.5 110 427 80T 854 105L 854 0 Z"/>
    </path>
    <path d="" fill="#607996" opacity="0.50">
      <animate attributeName="d" dur="20s" repeatCount="indefinite"
        keyTimes="0;0.333;0.667;1"
        keySplines="0.2 0 0.2 1;0.2 0 0.2 1;0.2 0 0.2 1"
        calcMode="spline" begin="-10s"
        values="M0 0L 0 85Q 213.5 130 427 100T 854 110L 854 0 Z;M0 0L 0 100Q 213.5 70 427 70T 854 90L 854 0 Z;M0 0L 0 95Q 213.5 75 427 100T 854 115L 854 0 Z;M0 0L 0 85Q 213.5 130 427 100T 854 110L 854 0 Z"/>
    </path>
  </g>

  <!-- ========== NAME ========== -->
  <text text-anchor="middle" alignment-baseline="middle" x="50%" y="38%" class="name" fill="#e8f1f8">Holger Rode</text>

</svg>
